<?xml version="1.0" encoding="UTF-8"?>
<svg id="Ebene_1" data-name="Ebene 1" xmlns="http://www.w3.org/2000/svg" viewBox="0 0 591.72 591.72">
  <defs>
    <style>
      .cls-1 {
        fill: none;
      }

      .cls-1, .cls-2 {
        stroke: #fafafa;
        stroke-miterlimit: 4;
        stroke-width: 6.72px;
      }

      .cls-3 {
        fill: #fafafa;
        stroke-width: 0px;
      }

      .cls-2 {
        fill: #191a1a;
      }
    </style>
  </defs>
  <circle class="cls-2" cx="295.86" cy="295.86" r="292.45"/>
  <circle class="cls-1" cx="295.86" cy="295.86" r="256.33"/>
  <path class="cls-3" d="M129.27,339.28l-18.55-102.29,27.72-5.03c7.44-1.35,13.17-.51,17.21,2.52,4.06,2.99,6.85,8.64,8.36,16.97l.81,4.47c.87,4.81.71,8.86-.5,12.16-1.16,3.29-3.42,5.72-6.78,7.29,4.82.33,8.4,2.5,10.73,6.52,2.36,3.97,4.1,9.04,5.22,15.2,1.2,6.63,1.63,12.53,1.29,17.72-.34,5.18-1.89,9.45-4.65,12.79-2.76,3.34-7.14,5.56-13.14,6.65l-27.72,5.03ZM137.7,271.89l4.19-.76c1.9-.34,2.99-1.3,3.26-2.87.28-1.57.23-3.38-.15-5.44l-1.86-10.29c-.6-3.29-2.35-4.68-5.26-4.15l-4.3.78,4.12,22.73ZM148.03,317.26c5.31-.96,7.51-3.96,6.59-9l-2.32-12.79c-.53-2.91-1.39-5.11-2.58-6.61-1.16-1.55-2.94-2.11-5.34-1.67l-3.78.68,5.37,29.64c.87-.08,1.55-.16,2.06-.25ZM185.81,329.02l-8.67-104.08,34.7-6.29,28.26,100.53-19.36,3.51-4.45-16.24-12.32,2.23,1.71,16.74-19.88,3.61ZM202.47,292.08l9.3-1.69-13.91-51.21-.93.17,5.54,52.72ZM248.76,317.61l-18.55-102.29,31.39-5.69c5.23-.95,9.4-.46,12.51,1.45,3.1,1.88,5.49,4.89,7.16,9.03,1.7,4.09,3.08,9.03,4.12,14.8,1.01,5.58,1.1,10.17.27,13.76-.79,3.59-3.03,6.37-6.71,8.36,3.34.08,5.87,1.28,7.62,3.6,1.77,2.28,3.03,5.44,3.76,9.46l7.02,38.71-20.17,3.66-7.26-40.05c-.54-2.98-1.5-4.71-2.86-5.19-1.33-.52-3.36-.53-6.07-.04l8.46,46.67-20.69,3.75ZM257.89,249.44l4.94-.9c2.83-.51,3.68-3.85,2.57-10.01-.72-3.99-1.51-6.55-2.35-7.68-.85-1.13-2.12-1.54-3.82-1.23l-4.77.87,3.44,18.95ZM307.86,306.89l-18.55-102.29,21.04-3.82,18.3,47.29-8.88-49,19.76-3.58,18.55,102.29-19.99,3.63-19.5-49.29,9.27,51.15-19.99,3.63ZM369.53,295.71l-18.55-102.29,40.92-7.42,3.58,19.76-20.11,3.65,3.62,19.94,19.3-3.5,3.49,19.24-19.3,3.5,4.25,23.42,21.45-3.89,3.61,19.94-42.25,7.66ZM445.42,282.9c-9.34,1.69-16.5.59-21.49-3.31-4.95-3.9-8.35-10.93-10.19-21.08l-1.81-10,20.23-3.67,2.32,12.79c.43,2.36,1.11,4.16,2.06,5.39.97,1.18,2.35,1.61,4.13,1.29,1.86-.34,3.04-1.11,3.54-2.32.54-1.22.58-3.07.13-5.55-.57-3.14-1.35-5.7-2.35-7.68-1.01-2.02-2.46-3.84-4.35-5.46-1.86-1.66-4.38-3.53-7.56-5.59l-10.76-7.05c-8.03-5.23-12.8-12.01-14.31-20.34-1.58-8.72-.77-15.73,2.43-21.03,3.24-5.31,8.69-8.66,16.37-10.05,9.38-1.7,16.47-.41,21.29,3.88,4.86,4.28,8.21,11.52,10.06,21.71l-20.81,3.77-1.28-7.03c-.25-1.39-.86-2.41-1.81-3.03-.92-.63-2.05-.83-3.41-.58-1.63.29-2.75.98-3.35,2.05-.57,1.02-.73,2.25-.47,3.69.26,1.43.93,2.91,2.01,4.44,1.08,1.53,2.96,3.17,5.64,4.92l13.85,9.19c2.77,1.82,5.37,3.81,7.81,5.97,2.43,2.12,4.54,4.74,6.35,7.85,1.8,3.08,3.13,7,3.99,11.76,1.74,9.61,1.33,17.47-1.25,23.58-2.54,6.06-8.21,9.89-17.01,11.49ZM272.18,443.14l-18.55-102.29,40.92-7.42,3.62,19.94-20.34,3.69,2.95,16.27,19.3-3.5,3.57,19.7-19.3,3.5,8.41,46.38-20.57,3.73ZM346.1,430.69c-7.4,1.34-13.79.12-19.16-3.67-5.33-3.8-8.75-9.84-10.25-18.13l-8.56-47.19c-1.8-9.92-1.22-17.87,1.74-23.85,3-5.99,8.93-9.78,17.8-11.39,4.84-.88,9.3-.77,13.39.33,4.12,1.09,7.59,3.23,10.4,6.4,2.81,3.13,4.7,7.39,5.68,12.78l3.2,17.67-20.34,3.69-2.74-15.11c-.55-3.06-1.32-5.05-2.28-5.95-.97-.94-2.27-1.27-3.9-.97-1.9.34-3.05,1.27-3.46,2.79-.41,1.48-.41,3.36,0,5.64l9.29,51.2c.51,2.83,1.28,4.75,2.31,5.76,1.06,1.01,2.37,1.37,3.92,1.09,1.74-.32,2.83-1.25,3.27-2.81.48-1.57.51-3.49.09-5.78l-3.34-18.42,20.58-3.73,3.51,19.35c1.63,8.99.55,15.93-3.25,20.82-3.8,4.85-9.77,8.02-17.91,9.49Z"/>
</svg>